<?xml version="1.0" encoding="UTF-8"?>
<!DOCTYPE svg PUBLIC "-//W3C//DTD SVG 1.1//EN" "http://www.w3.org/Graphics/SVG/1.1/DTD/svg11.dtd">
<!-- Creator: CorelDRAW X8 -->
<svg xmlns="http://www.w3.org/2000/svg" xml:space="preserve" width="7.5in" height="5.4in" version="1.1" style="shape-rendering:geometricPrecision; text-rendering:geometricPrecision; image-rendering:optimizeQuality; fill-rule:evenodd; clip-rule:evenodd"
viewBox="0 0 7500 5400"
 xmlns:xlink="http://www.w3.org/1999/xlink">
 <defs>
  <style type="text/css">
   <![CDATA[
    .fil1 {fill:#1A7937}
    .fil0 {fill:#C22029}
    .fil2 {fill:#FEFEFE;fill-rule:nonzero}
   ]]>
  </style>
 </defs>
 <g id="Layer_x0020_1">
  <metadata id="CorelCorpID_0Corel-Layer"/>
  <g id="_1993490398080">
   <path class="fil0" d="M1140 3260c0,90 6,613 -1,662 -10,73 -11,367 -11,441 22,0 23,3 42,4 15,1 34,0 50,0 59,1 127,-6 189,-8 27,-1 66,-7 92,-9 130,-6 248,-21 378,-21 114,0 352,0 449,38 74,29 155,95 155,185 0,105 -56,179 -112,253 -89,119 -155,202 -74,360 67,132 250,234 397,189 103,-31 191,-88 235,-189 54,-126 40,-264 -49,-369 -12,-14 -23,-21 -34,-36 -39,-50 -69,-100 -69,-171 0,-159 196,-230 335,-230l1020 0 1 -1356c-4,-26 -5,-46 -15,-64 -28,-50 -70,-37 -113,-16 -22,10 -36,22 -50,38 -28,31 -53,61 -90,83 -38,23 -73,41 -116,55 -115,38 -277,37 -380,-24 -14,-8 -23,-13 -37,-22 -38,-25 -69,-56 -99,-90 -58,-65 -103,-156 -118,-246 -39,-223 57,-471 256,-582 14,-8 26,-12 41,-18 143,-65 334,-39 459,45 41,28 152,125 194,125 47,0 59,-120 65,-157 10,-74 2,-140 2,-216l0 -822 -936 0c-23,0 -48,0 -72,2l-784 0c-16,-5 -34,-6 -50,-6 -102,4 -204,5 -308,6l-2 0c-196,0 -394,-2 -588,-2l-227 -1c-38,1 -25,18 -25,114 0,109 7,829 -3,898 -12,84 -38,203 -92,269 -17,21 -26,30 -47,45 -15,11 -46,21 -72,21 -58,0 -129,-35 -167,-72 -42,-42 -84,-75 -139,-100 -128,-57 -291,-26 -391,62l-27 23c-9,10 -11,15 -22,25 -11,12 -13,16 -22,28 -15,21 -27,39 -37,64 -20,49 -37,109 -38,163 -1,18 3,22 4,42 1,18 3,27 7,44 16,70 52,148 106,195 84,72 158,117 281,117 74,0 137,-24 193,-59 8,-4 16,-11 25,-17 85,-58 261,-209 357,-75 24,33 35,62 48,108 21,73 36,182 36,274z"/>
   <path class="fil1" d="M3367 2361c-210,260 -30,593 198,593 54,0 128,-11 168,-34 112,-64 101,-106 190,-154 179,-95 348,6 379,198 9,54 2,95 2,149l0 1233c0,10 3,13 13,13l431 0 0 0 879 0c86,103 -52,254 -104,333 -42,64 -75,137 -75,218 0,22 6,62 10,85 8,41 22,72 41,106 70,125 198,197 330,203l36 0c75,-4 150,-28 215,-77 135,-100 200,-285 131,-456 -35,-88 -89,-114 -132,-186 -62,-102 -44,-175 11,-226l279 0c87,4 178,1 265,0l40 0c27,1 45,4 72,4 225,-1 441,8 667,8 0,-70 4,-126 4,-197l0 -904 0 -211 0 -805 0 -326 0 -824c0,-22 -66,-12 -84,-12l-692 0c-61,0 -138,4 -197,0 -26,-2 -54,-10 -82,-15 -180,-29 -381,-117 -256,-323 43,-72 97,-98 132,-186 69,-171 4,-356 -131,-456 -65,-49 -140,-74 -215,-77l-36 0c-132,6 -260,78 -330,203 -19,34 -33,64 -41,106 -4,23 -10,62 -10,85 0,81 33,154 75,218 67,102 282,328 -44,409 -93,23 -199,36 -300,36l-902 0 0 1006c0,134 -54,357 -222,357 -177,0 -218,-112 -347,-174 -132,-62 -278,-31 -368,80z"/>
   <path class="fil2" d="M1503 1994l0 -582 68 0 0 525 108 0 0 57 -176 0zm231 0l0 -497 68 0 0 497 -68 0zm0 -542l0 -62 68 0 0 62 -68 0zm253 545c-21,0 -37,-3 -48,-8 -11,-5 -18,-13 -22,-24 -4,-11 -6,-26 -6,-45l0 -368 -45 0 0 -50 45 0 0 -90 68 0 0 90 54 0 0 50 -54 0 0 362c0,9 1,15 3,19 3,4 8,7 15,8 8,1 20,2 36,2l0 54 -46 0zm212 3c-24,0 -43,-4 -57,-13 -15,-8 -26,-20 -33,-35 -8,-15 -13,-33 -15,-55 -3,-21 -4,-44 -4,-70l0 -176c0,-23 2,-44 5,-64 3,-20 9,-36 17,-51 8,-14 20,-25 34,-33 15,-8 33,-11 56,-11 23,0 41,4 55,11 14,8 24,20 31,34 8,14 12,32 15,52 2,20 3,42 3,65l0 94 -148 0 0 99c0,31 2,55 7,72 4,16 16,24 35,24 12,0 21,-4 27,-11 5,-8 9,-19 10,-34 1,-14 2,-31 2,-50l0 -40 66 0 0 21c0,26 -1,49 -3,70 -2,21 -7,39 -13,54 -7,15 -18,27 -32,35 -14,8 -34,12 -58,12zm-41 -298l81 0 0 -63c0,-20 -1,-37 -2,-50 -2,-14 -5,-24 -10,-31 -5,-7 -13,-10 -25,-10 -13,0 -23,3 -29,11 -6,8 -11,19 -12,33 -2,14 -3,31 -3,49l0 61zm231 292l0 -497 68 0 0 56c6,-19 16,-34 30,-45 14,-11 33,-16 55,-16 0,0 0,3 1,8 0,6 0,13 0,20 0,8 0,15 0,20 0,6 0,9 0,9 -11,0 -21,1 -32,4 -11,3 -21,7 -30,13 -9,6 -17,14 -24,25l0 403 -68 0zm286 4c-30,0 -51,-11 -64,-35 -14,-23 -20,-55 -21,-97l0 -48c0,-22 4,-40 12,-54 7,-15 18,-27 31,-36 14,-10 30,-19 49,-27 18,-8 38,-16 61,-25l0 -38c0,-21 -1,-39 -2,-52 -2,-13 -5,-22 -10,-29 -6,-6 -15,-9 -26,-9 -12,0 -21,3 -27,9 -6,7 -9,16 -11,30 -2,13 -3,30 -3,51l0 17 -67 0 0 -14c0,-21 1,-41 4,-59 2,-18 7,-34 15,-47 7,-14 18,-24 33,-32 14,-8 33,-11 57,-11 22,0 40,3 54,10 14,7 25,18 32,32 7,14 13,31 15,51 3,21 4,44 4,71l0 338 -68 0 0 -43c-2,7 -6,14 -12,21 -5,7 -13,14 -22,19 -9,5 -21,7 -34,7zm20 -55c11,0 22,-4 30,-11 9,-8 15,-15 18,-23l0 -189c-17,8 -31,15 -42,21 -11,6 -20,12 -26,19 -6,6 -10,14 -12,23 -3,10 -4,21 -4,35l0 46c0,29 2,49 7,61 5,12 14,18 29,18zm308 57c-24,0 -43,-4 -58,-12 -14,-9 -25,-20 -33,-36 -8,-15 -13,-33 -16,-55 -2,-21 -3,-45 -3,-70l0 -167c0,-33 2,-62 8,-87 5,-26 16,-46 32,-60 16,-14 40,-21 72,-21 22,0 40,3 54,10 13,8 23,18 31,32 7,14 12,30 14,49 3,19 4,40 4,63l0 35 -67 0 0 -44c0,-19 -1,-35 -2,-48 -1,-13 -4,-23 -9,-29 -5,-7 -14,-10 -26,-10 -12,0 -22,3 -28,11 -6,7 -10,17 -12,30 -2,14 -3,29 -3,48l0 211c0,20 1,38 2,51 2,14 6,24 12,31 6,6 15,10 27,10 12,0 21,-4 26,-11 6,-7 9,-18 11,-31 1,-14 2,-30 2,-49l0 -48 67 0 0 32c0,25 -1,47 -4,67 -2,20 -7,38 -14,52 -7,15 -18,26 -32,34 -14,8 -32,12 -55,12zm173 77l0 -51 24 0c10,0 18,-1 25,-2 7,-1 12,-3 13,-6 3,-4 4,-9 3,-17 0,-8 -1,-16 -2,-25l-81 -479 65 0 36 259 15 134 6 0 13 -134 32 -259 66 0 -83 507c-3,17 -6,32 -10,43 -4,10 -10,18 -18,23 -8,5 -21,7 -37,7l-67 0z"/>
   <path class="fil2" d="M2043 2374l4 -15 216 0 -5 15 -215 0zm235 -200c-9,0 -17,2 -24,6 -7,4 -13,8 -18,13 -9,8 -17,21 -23,38 -7,17 -13,36 -19,58 -5,22 -11,45 -17,69l-136 505c-12,0 -23,1 -34,2 -11,2 -22,4 -32,8l138 -515c10,-39 21,-71 32,-96 12,-26 26,-46 42,-62 12,-12 25,-21 42,-27 16,-7 33,-10 50,-10 22,0 40,5 52,15 12,10 17,22 17,37 0,8 -2,16 -6,24 -4,8 -10,14 -18,19 -7,5 -15,7 -25,7 -9,0 -16,-2 -21,-6 -6,-5 -8,-11 -8,-18 0,-13 4,-23 12,-32 8,-8 18,-14 30,-17 0,-5 -3,-9 -10,-13 -6,-3 -14,-5 -24,-5zm173 189c-16,0 -31,7 -45,19 -14,13 -28,29 -40,51 -12,21 -22,45 -31,71 -9,26 -16,54 -21,82 -5,28 -7,55 -7,81 0,22 3,38 10,48 7,11 18,16 31,16 16,0 31,-6 45,-19 15,-12 28,-29 40,-50 13,-22 23,-45 32,-72 9,-26 15,-53 20,-81 5,-28 8,-56 8,-82 0,-22 -4,-39 -11,-49 -6,-10 -17,-15 -31,-15zm-207 268c0,-22 3,-45 9,-71 5,-25 14,-50 26,-75 12,-25 26,-48 43,-68 17,-21 36,-37 59,-49 22,-13 47,-19 74,-19 31,0 55,9 73,28 18,19 28,48 28,87 0,21 -3,45 -9,70 -6,25 -15,50 -27,75 -11,25 -26,48 -42,68 -17,21 -37,37 -59,50 -23,12 -48,18 -75,18 -30,0 -54,-9 -73,-28 -18,-19 -27,-48 -27,-86zm430 104l-64 0 88 -314c5,-16 7,-28 5,-35 -2,-7 -7,-10 -15,-10 -11,0 -20,6 -29,17 -9,11 -18,30 -28,58l-10 27 -13 0 18 -54c7,-20 16,-36 26,-47 10,-10 20,-18 31,-22 11,-4 22,-6 31,-6 15,0 25,3 31,9 7,7 10,15 11,25 0,10 0,22 -2,34 -3,11 -5,23 -8,34l-72 284zm188 -368c-11,0 -23,5 -35,16 -12,10 -24,25 -36,45 -13,20 -25,44 -37,71 -13,28 -25,58 -37,92 -12,34 -24,70 -35,109l18 -94c17,-47 32,-88 45,-120 14,-33 28,-59 42,-80 13,-20 27,-35 42,-44 14,-9 30,-13 46,-13 13,0 24,4 31,12 8,7 12,17 12,30 0,9 -3,18 -8,26 -4,8 -11,15 -18,19 -8,5 -16,7 -25,7 -9,0 -16,-2 -21,-7 -6,-4 -9,-11 -9,-19 0,-8 2,-15 5,-21 3,-6 7,-11 11,-16 5,-4 11,-7 17,-10 -1,-1 -2,-2 -3,-2 -1,-1 -3,-1 -5,-1z"/>
   <path class="fil2" d="M1707 3991c-39,0 -71,-8 -96,-22 -24,-14 -43,-34 -56,-60 -14,-26 -23,-57 -28,-92 -5,-35 -7,-75 -7,-117l0 -95 111 0 0 99c0,68 4,116 14,145 10,29 31,44 63,44 22,0 39,-5 49,-15 11,-11 17,-28 20,-51 3,-23 5,-53 5,-91 0,-43 -8,-81 -23,-112 -15,-31 -37,-61 -66,-89l-63 -64c-18,-19 -36,-39 -54,-61 -18,-22 -32,-47 -44,-76 -11,-28 -17,-60 -17,-96 0,-49 5,-92 16,-127 10,-36 28,-63 55,-82 28,-20 66,-30 116,-30 39,0 71,7 94,21 24,13 42,33 54,58 12,25 20,55 23,89 4,34 6,73 6,114l0 58 -109 0 0 -65c0,-39 -1,-72 -4,-98 -4,-27 -10,-46 -19,-60 -10,-13 -25,-19 -45,-19 -18,0 -33,4 -45,13 -11,9 -20,23 -25,42 -5,18 -7,42 -7,72 0,25 3,47 9,63 6,17 16,32 28,47 13,14 28,31 47,50l66 70c35,36 63,77 85,122 22,45 33,97 33,157 0,53 -5,99 -15,138 -11,38 -29,68 -56,88 -27,21 -65,32 -115,32zm299 -12l0 -968 182 0c51,0 90,11 118,32 29,21 49,51 60,91 11,39 17,86 17,140l1 426c0,65 -7,118 -20,159 -13,42 -34,72 -63,91 -29,20 -68,29 -117,29l-178 0zm113 -91l59 0c20,0 37,-5 51,-14 14,-9 24,-26 31,-50 6,-25 10,-60 10,-107l0 -446c0,-60 -7,-104 -22,-130 -14,-26 -37,-39 -70,-39l-59 0 0 786zm575 101c-56,0 -99,-23 -129,-69 -30,-47 -45,-123 -45,-229l0 -406c0,-42 3,-81 9,-115 6,-35 16,-65 31,-90 15,-26 35,-45 60,-59 26,-13 58,-20 97,-20 40,0 72,7 96,21 24,13 43,33 55,58 13,26 21,56 25,91 4,35 6,74 6,116l0 75 -110 0 0 -126c0,-47 -5,-81 -14,-104 -9,-22 -29,-34 -58,-34 -31,0 -53,14 -65,40 -12,27 -18,75 -18,142l0 407c0,75 5,127 15,159 10,32 32,48 65,48 31,0 52,-16 64,-48 11,-32 16,-86 16,-161l0 -126 -78 0 0 -88 183 0 0 508 -60 0 -15 -74c-11,27 -27,48 -49,62 -22,15 -49,22 -81,22zm509 2c-59,0 -104,-19 -134,-56 -31,-37 -46,-98 -46,-183l0 -62 110 0 0 61c0,46 5,82 15,106 10,25 27,37 50,37 23,0 40,-7 51,-22 10,-15 16,-42 16,-81 0,-20 -3,-39 -9,-58 -6,-19 -15,-39 -27,-57 -12,-19 -28,-38 -47,-56l-58 -55c-35,-34 -61,-69 -80,-107 -18,-37 -27,-77 -27,-119 0,-67 15,-116 47,-147 32,-32 75,-47 130,-47 37,0 68,8 94,24 25,16 44,43 57,80 13,38 19,88 19,153l0 40 -107 0 0 -58c0,-46 -4,-81 -13,-106 -9,-24 -25,-37 -49,-37 -22,0 -39,7 -50,20 -11,13 -17,37 -18,71 -1,18 2,35 6,53 6,18 14,36 25,54 11,17 26,35 44,52l60 55c38,36 67,74 87,115 19,41 29,84 29,129 0,63 -14,112 -42,147 -29,36 -73,54 -133,54z"/>
   <path class="fil2" d="M4824 3295l-40 -327 45 0 24 233 30 -233 40 0 31 233 21 -233 45 0 -37 327 -50 0 -29 -218 -30 218 -50 0zm298 4c-17,0 -31,-4 -42,-11 -10,-7 -18,-18 -23,-32 -6,-14 -8,-32 -8,-52l0 -150c0,-19 2,-35 7,-49 5,-13 13,-23 24,-30 11,-8 25,-11 42,-11 14,0 25,2 34,6 9,4 16,10 22,18 5,7 9,17 12,28 2,11 4,24 4,38l0 150c0,20 -3,38 -8,52 -5,14 -12,25 -23,32 -10,7 -24,11 -41,11zm0 -43c6,0 11,-2 14,-6 3,-4 5,-9 6,-17 1,-8 2,-17 2,-29l0 -152c0,-15 -2,-26 -4,-33 -3,-8 -9,-12 -18,-12 -9,0 -15,4 -18,11 -3,8 -5,19 -5,33l0 153c0,12 1,22 2,29 1,8 3,14 6,17 4,4 8,6 15,6zm117 39l0 -327 82 0c17,0 30,3 38,10 9,6 14,16 17,29 3,13 4,29 4,47 0,20 -2,35 -6,46 -4,11 -12,18 -24,22 6,1 11,3 15,7 4,3 7,9 9,16 2,7 4,16 5,27 1,11 2,24 2,40 0,1 0,5 0,10 0,6 0,13 0,20 0,8 0,16 0,24 0,7 0,14 1,19 0,6 0,9 1,10l-50 0c-1,-1 -1,-4 -1,-10 0,-5 0,-13 -1,-22 0,-9 0,-18 0,-28 0,-11 0,-21 0,-31 0,-10 0,-19 0,-26 0,-10 -1,-18 -2,-23 -2,-5 -4,-8 -8,-10 -4,-2 -9,-3 -16,-4l-16 -1 0 155 -50 0zm50 -193l20 0c6,0 10,-2 14,-4 3,-3 5,-8 6,-15 1,-8 2,-18 2,-32l0 -2c0,-12 -1,-20 -2,-27 -1,-6 -3,-10 -7,-12 -3,-3 -9,-4 -16,-4l-17 0 0 96zm134 193l0 -327 50 0 0 285 63 0 0 42 -113 0zm140 0l0 -327 73 0c17,0 30,3 40,10 10,6 18,16 22,28 5,13 7,28 7,46l0 147c0,22 -2,40 -7,54 -4,14 -12,25 -22,32 -10,7 -24,10 -41,10l-72 0zm50 -39l16 0c6,0 11,-1 15,-3 4,-3 7,-7 8,-13 2,-6 3,-14 3,-25l0 -162c0,-17 -2,-29 -6,-36 -4,-7 -11,-11 -22,-11l-14 0 0 250zm206 39l0 -327 49 0 0 285 64 0 0 42 -113 0zm139 0l0 -327 110 0 0 43 -60 0 0 95 57 0 0 42 -57 0 0 104 62 0 0 43 -112 0zm130 0l47 -327 65 0 50 327 -46 0 -8 -58 -53 0 -7 58 -48 0zm60 -98l43 0 -22 -165 -1 0 -20 165zm132 98l0 -327 73 0c17,0 30,3 40,10 10,6 17,16 22,28 4,13 7,28 7,46l0 147c0,22 -2,40 -7,54 -5,14 -12,25 -22,32 -11,7 -24,10 -42,10l-71 0zm50 -39l16 0c6,0 11,-1 15,-3 3,-3 6,-7 8,-13 2,-6 3,-14 3,-25l0 -162c0,-17 -2,-29 -6,-36 -4,-7 -12,-11 -22,-11l-14 0 0 250zm137 39l0 -327 110 0 0 43 -60 0 0 95 57 0 0 42 -57 0 0 104 62 0 0 43 -112 0zm149 0l0 -327 82 0c17,0 30,3 39,10 8,6 14,16 16,29 3,13 4,29 4,47 0,20 -2,35 -6,46 -4,11 -11,18 -23,22 5,1 10,3 14,7 4,3 7,9 9,16 3,7 4,16 5,27 1,11 2,24 2,40 0,1 0,5 0,10 0,6 0,13 0,20 0,8 0,16 0,24 0,7 1,14 1,19 0,6 0,9 1,10l-50 0c-1,-1 -1,-4 -1,-10 0,-5 0,-13 -1,-22 0,-9 0,-18 0,-28 0,-11 0,-21 0,-31 0,-10 0,-19 0,-26 0,-10 -1,-18 -2,-23 -2,-5 -4,-8 -8,-10 -4,-2 -9,-3 -16,-4l-16 -1 0 155 -50 0zm50 -193l20 0c6,0 11,-2 14,-4 3,-3 5,-8 6,-15 1,-8 2,-18 2,-32l0 -2c0,-12 -1,-20 -2,-27 -1,-6 -3,-10 -7,-12 -3,-3 -9,-4 -16,-4l-17 0 0 96zm194 197c-14,0 -25,-2 -34,-7 -9,-4 -17,-10 -22,-18 -5,-9 -9,-19 -11,-31 -2,-11 -3,-25 -3,-40l0 -29 47 0 0 33c0,17 1,30 4,38 3,7 9,11 18,11 6,0 10,-1 13,-4 4,-3 6,-7 7,-13 1,-7 1,-15 1,-25 0,-12 -2,-23 -8,-33 -5,-10 -12,-21 -23,-32l-24 -25c-7,-7 -13,-14 -18,-22 -6,-8 -10,-16 -13,-26 -3,-10 -5,-20 -5,-32 0,-17 2,-32 7,-44 4,-12 11,-21 21,-27 10,-6 24,-9 41,-9 13,0 24,2 33,6 8,4 15,10 20,18 4,7 8,17 10,28 2,11 3,24 3,38l0 20 -46 0 0 -23c0,-10 -1,-19 -2,-25 -1,-7 -3,-12 -6,-15 -3,-3 -7,-5 -12,-5 -5,0 -10,1 -13,4 -3,2 -5,5 -7,10 -1,5 -2,11 -2,19 0,7 1,12 3,17 1,5 4,10 8,15 3,4 8,9 13,15l27 29c13,14 23,29 30,44 7,15 11,31 11,50 0,20 -2,36 -6,49 -5,14 -12,24 -22,30 -9,7 -23,11 -40,11zm-1599 407c-16,0 -29,-4 -40,-11 -10,-7 -18,-18 -23,-32 -6,-14 -8,-31 -8,-51l0 -143c0,-15 1,-28 3,-40 3,-12 7,-23 13,-31 5,-9 13,-15 22,-20 9,-5 21,-7 34,-7 13,0 23,2 32,6 9,4 16,10 21,18 6,7 10,16 12,27 3,11 4,23 4,36l0 45 -48 0 0 -42c0,-16 -1,-28 -4,-35 -3,-8 -8,-12 -16,-12 -9,0 -15,4 -18,13 -4,8 -5,19 -5,34l0 153c0,11 1,21 2,28 1,7 3,13 7,16 3,3 7,5 13,5 8,0 14,-4 17,-12 3,-8 4,-20 4,-37l0 -47 49 0 0 46c0,21 -2,38 -7,52 -5,14 -13,24 -23,31 -11,7 -24,10 -41,10zm182 0c-17,0 -31,-4 -42,-11 -10,-7 -18,-18 -23,-32 -6,-14 -8,-31 -8,-52l0 -150c0,-19 2,-35 7,-48 5,-14 13,-24 24,-31 11,-7 25,-11 42,-11 14,0 25,2 34,6 9,4 16,10 22,18 5,8 9,17 12,28 2,11 4,24 4,38l0 150c0,21 -3,38 -8,52 -5,14 -12,25 -23,32 -10,7 -24,11 -41,11zm0 -43c6,0 11,-2 14,-6 3,-4 5,-9 6,-17 1,-7 2,-17 2,-29l0 -152c0,-14 -2,-25 -4,-33 -3,-8 -9,-12 -18,-12 -9,0 -15,4 -18,11 -3,8 -5,19 -5,34l0 152c0,12 1,22 2,30 1,7 3,13 6,16 4,4 8,6 15,6zm117 39l0 -327 39 0 69 196 -3 -89 0 -107 45 0 0 327 -36 0 -71 -203 3 86 0 117 -46 0zm266 4c-16,0 -29,-4 -40,-11 -10,-7 -18,-18 -24,-32 -5,-14 -7,-31 -7,-51l0 -143c0,-15 1,-28 3,-40 3,-12 7,-23 12,-31 6,-9 13,-15 23,-20 9,-5 20,-7 34,-7 13,0 23,2 32,6 9,4 16,10 21,18 6,7 10,16 12,27 3,11 4,23 4,36l0 45 -48 0 0 -42c0,-16 -1,-28 -4,-35 -3,-8 -8,-12 -16,-12 -10,0 -16,4 -19,13 -3,8 -4,19 -4,34l0 153c0,11 0,21 2,28 1,7 3,13 6,16 3,3 8,5 13,5 9,0 15,-4 17,-12 3,-8 5,-20 5,-37l0 -47 49 0 0 46c0,21 -3,38 -7,52 -5,14 -13,24 -23,31 -11,7 -24,10 -41,10zm113 -4l0 -327 50 0 0 285 63 0 0 42 -113 0zm120 0l47 -327 66 0 50 327 -47 0 -8 -58 -53 0 -7 58 -48 0zm60 -98l43 0 -22 -165 -1 0 -20 165zm162 98l-51 -327 47 0 22 148 13 104 1 0 12 -104 17 -148 47 0 -47 327 -61 0zm139 0l0 -327 110 0 0 43 -60 0 0 95 57 0 0 42 -57 0 0 104 62 0 0 43 -112 0z"/>
   <path class="fil2" d="M5030 2855l-166 -1259 137 0 107 965 143 -965 121 0 147 965 91 -965 136 0 -149 1259 -147 0 -134 -930 -143 930 -143 0zm857 0l0 -1259 148 0 0 1137 233 0 0 122 -381 0zm717 15c-61,0 -110,-15 -146,-45 -36,-30 -62,-73 -78,-131 -16,-58 -24,-128 -24,-210l0 -525c0,-55 4,-106 11,-152 7,-46 20,-86 38,-119 19,-34 44,-60 77,-78 33,-19 75,-28 127,-28 49,0 89,9 120,26 31,18 55,42 72,75 18,32 29,70 36,114 6,44 9,93 9,147l0 139 -145 0 0 -140c0,-79 -6,-137 -17,-176 -11,-39 -36,-58 -75,-58 -42,0 -69,20 -84,59 -13,40 -21,98 -21,174l0 545c0,61 3,111 8,149 5,38 15,65 30,82 14,18 35,26 63,26 39,0 65,-20 77,-60 13,-40 19,-106 19,-197l0 -140 147 0 0 138c0,84 -7,155 -22,212 -15,57 -39,100 -75,129 -35,30 -84,44 -147,44z"/>
  </g>
 </g>
</svg>
